<?xml version="1.0" encoding="UTF-8"?>
<svg id="Layer_2" xmlns="http://www.w3.org/2000/svg" version="1.1" viewBox="0 0 10 10">
  <!-- Generator: Adobe Illustrator 29.5.1, SVG Export Plug-In . SVG Version: 2.1.0 Build 141)  -->
  <defs>
    <style>
      .st0 {
        fill: green;
      }
    </style>
  </defs>
  <path class="st0" d="M.11,1.97c0-.3.26-.54.57-.5.72.1,1.67.33,2.68.84,1.04.53,1.77,1.17,2.24,1.64.52.52,1.35,1.49,1.9,2.93.38.99.51,1.89.54,2.57.02.29-.22.53-.52.52h-.71c-.26-.02-.47-.22-.49-.48-.07-.9-.39-2.74-1.9-4.3-1.4-1.45-3.06-1.89-3.9-2.02-.24-.04-.41-.25-.41-.5v-.71h0Z"/>
  <path class="st0" d="M.11,5.45c0-.33.31-.56.63-.48.32.08.7.21,1.1.41.24.12.89.48,1.51,1.19.62.7.88,1.39.96,1.61.17.46.25.89.28,1.25.03.29-.21.53-.5.53h-.74c-.25,0-.46-.18-.49-.43-.06-.44-.25-1.11-.77-1.75-.55-.67-1.23-.97-1.65-1.11-.2-.07-.34-.26-.34-.47v-.75h0Z"/>
</svg>